# AST/ASF file generated using VICON BodyLanguage
# -----------------------------------------------
:version 1.10
:name VICON
:units
  mass 1.0
  length 0.45
  angle deg
:documentation
   .ast/.asf automatically generated from VICON data using
   VICON BodyBuilder and BodyLanguage model FoxedUp or BRILLIANT.MOD
:root
   order TX TY TZ RX RY RZ
   axis XYZ
   position 0 0 0  
   orientation 0 0 0 
:bonedata
  begin
     id 1 
     name lhipjoint
     direction 0.677091 -0.635792 0.370561 
     length 2.74323 
     axis 0 0 0  XYZ
  end
  begin
     id 2 
     name lfemur
     direction 0.34202 -0.939693 0  
     length 7.44995  
     axis 0 0 20  XYZ
    dof rx ry rz
    limits (-160.0 20.0)
           (-70.0 70.0)
           (-60.0 70.0)
  end
  begin
     id 3 
     name ltibia
     direction 0.34202 -0.939693 0   
     length 7.34467   
     axis 0 0 20   XYZ
    dof rx
    limits (-10.0 170.0)
  end
  begin
     id 4 
     name lfoot
     direction 0.101953 -0.280114 0.954537   
     length 1.72105   
     axis -90 7.62852e-016 20   XYZ
    dof rx rz
    limits (-45.0 90.0)
           (-70.0 20.0)
  end
  begin
     id 5 
     name ltoes
     direction 1.53537e-011 -4.21915e-011 1   
     length 0.865872   
     axis -90 7.62852e-016 20   XYZ
    dof rx
    limits (-90.0 20.0)
  end
  begin
     id 6 
     name rhipjoint
     direction -0.695735 -0.620586 0.361699   
     length 2.81045  
     axis 0 0 0  XYZ 
  end
  begin
     id 7 
     name rfemur
     direction -0.34202 -0.939693 0   
     length 7.29387   
     axis 0 0 -20   XYZ
    dof rx ry rz
    limits (-160.0 20.0)
           (-70.0 70.0)
           (-70.0 60.0)
  end
  begin
     id 8 
     name rtibia
     direction -0.34202 -0.939693 0   
     length 7.44935   
     axis 0 0 -20   XYZ
    dof rx
    limits (-10.0 170.0)
 end
 begin
     id 9 
     name rfoot
     direction -0.104163 -0.286184 0.952496   
     length 1.77731  
     axis -90 -7.62852e-016 -20   XYZ
    dof rx rz
    limits (-45.0 90.0)
           (-20.0 70.0)
  end
  begin
     id 10 
     name rtoes
     direction -1.5355e-011 -4.21888e-011 1   
     length 0.892424   
     axis -90 -7.62852e-016 -20   XYZ
    dof rx
    limits (-90.0 20.0)
  end
  begin
     id 11 
     name lowerback
     direction 0.0100202 0.997226 -0.0737589   
     length 2.16892   
     axis 0 0 0   XYZ
    dof rx ry rz
    limits (-20.0 45.0)
           (-30.0 30.0)
           (-30.0 30.0)
  end
  begin
     id 12 
     name upperback
     direction 0.00432398 0.999988 -0.00215019   
     length 2.17326   
     axis 0 0 0   XYZ
    dof rx ry rz
    limits (-20.0 45.0)
           (-30.0 30.0)
           (-30.0 30.0)
  end
  begin
     id 13 
     name thorax
     direction -0.00195047 0.999485 0.0320434   
     length 2.18139   
     axis 0 0 0   XYZ
    dof rx ry rz
    limits (-20.0 45.0)
           (-30.0 30.0)
           (-30.0 30.0)
  end
  begin
     id 14 
     name lowerneck
     direction 0.00782762 0.986241 0.165128   
     length 1.88415   
     axis 0 0 0   XYZ
    dof rx ry rz
    limits (-20.0 45.0)
           (-30.0 30.0)
           (-30.0 30.0)
  end
  begin
     id 15 
     name upperneck
     direction 0.00988667 0.981098 -0.193258   
     length 1.9242   
     axis 0 0 0   XYZ
    dof rx ry rz
    limits (-20.0 45.0)
           (-30.0 30.0)
           (-30.0 30.0)
  end
  begin
     id 16
     name head
     direction 0.00252199 0.996513 -0.0833958  
     length 1.93887  
     axis 0 0 0   XYZ
    dof rx ry rz
    limits (-20.0 45.0)
           (-30.0 30.0)
           (-30.0 30.0)
  end
  begin
     id 17 
     name lclavicle
     direction 0.929492 0.368193 -0.0218667  
     length 3.5955  
     axis 0 0 0   XYZ
    dof ry rz
    limits (-20.0 10.0)
           (0.0 20.0)
  end
  begin
     id 18 
     name lhumerus
     direction 1 -4.48972e-011 1.41911e-027   
     length 5.2795   
     axis 180 -30 -90   XYZ
    dof rx ry rz
    limits (-60.0 90.0)
           (-90.0 90.0)
           (-90.0 90.0)
  end
  begin
     id 19
     name lradius
     direction 1 -4.48963e-011 7.05772e-027   
     length 3.53504   
     axis 180 -30 -90   XYZ
    dof rx
    limits (-10.0 170.0)
  end
  begin
     id 20
     name lwrist
     direction 1 -4.48957e-011 9.54866e-027   
     length 1.76752   
     axis -7.69462e-015 90 90   XYZ
    dof ry
    limits (-180.0 0.0)
 end
  begin
     id 21 
     name lhand
     direction 1 -4.48979e-011 1.90973e-026   
     length 0.667948   
     axis -1.21857e-014 90 90   XYZ
    dof rx rz
    limits (-90.0 90.0)
           (-45.0 45.0)
  end
  begin
     id 22 
     name lfingers
     direction 1 -4.48987e-011 3.81946e-026   
     length 0.538517   
     axis -2.43714e-014 90 90   XYZ
    dof rx
    limits (0.0 90.0)
  end
  begin
     id 23
     name lthumb
     direction 0.707107 -6.34962e-011 0.707107   
     length 0.773206   
     axis -90 45 2.85299e-015   XYZ
    dof rx rz
    limits (-45.0 45.0)
           (-45.0 45.0)
  end
  begin
     id 24 
     name rclavicle
     direction -0.898763 0.414256 -0.143584   
     length 3.5176  
     axis 0 0 0   XYZ 
    dof ry rz
    limits (-10.0 20.0)
           (-20.0 0.0)
  end
  begin
     id 25 
     name rhumerus
     direction -1 -4.48971e-011 1.129e-027  
     length 5.25035   
     axis 180 30 90   XYZ
    dof rx ry rz
    limits (-90.0 60.0)
           (-90.0 90.0)
           (-90.0 90.0)
  end
  begin
     id 26 
     name rradius
     direction -1 -4.48955e-011 6.34664e-027   
     length 3.58884   
     axis 180 30 90   XYZ
    dof rx
    limits (-10.0 170.0)
  end
  begin
     id 27 
     name rwrist
     direction -1 -4.48966e-011 9.54866e-027   
     length 1.79442   
     axis -7.69462e-015 -90 -90   XYZ
    dof ry
    limits (-180.0 0.0)
  end
  begin
     id 28
     name rhand
     direction -1 -4.48973e-011 1.90973e-026   
     length 0.779235   
     axis -1.21857e-014 -90 -90   XYZ
    dof rx rz
    limits (-90.0 90.0)
           (-45.0 45.0)
  end
  begin
     id 29
     name rfingers
     direction -1 -4.48984e-011 3.81946e-026   
     length 0.62824   
     axis -2.43714e-014 -90 -90   XYZ
    dof rx
    limits (0.0 90.0)
  end
  begin
     id 30
     name rthumb
     direction -0.707107 -6.34968e-011 0.707107   
     length 0.90203   
     axis -90 -45 -2.85299e-015   XYZ
    dof rx rz
    limits (-45.0 45.0)
           (-45.0 45.0)
  end
:hierarchy
  begin
    root lhipjoint rhipjoint lowerback
    lhipjoint lfemur
    lfemur ltibia
    ltibia lfoot
    lfoot ltoes
    rhipjoint rfemur
    rfemur rtibia
    rtibia rfoot
    rfoot rtoes
    lowerback upperback
    upperback thorax
    thorax lowerneck lclavicle rclavicle
    lowerneck upperneck
    upperneck head
    lclavicle lhumerus
    lhumerus lradius
    lradius lwrist
    lwrist lhand lthumb
    lhand lfingers
    rclavicle rhumerus
    rhumerus rradius
    rradius rwrist
    rwrist rhand rthumb
    rhand rfingers
  end

#!OML:ASF I:\Random Stuff\random\construction\7_22_03\Session 2\subj1.ASF
:FULLY-SPECIFIED
:DEGREES
290
root 4.2208 17.7846 -12.9808 41.1265 -3.23866 -11.2661
lowerback 43.8491 -4.14151 -4.89521
upperback 14.7949 -7.68339 -9.26057
thorax -4.68109 -3.34709 -4.34071
lowerneck -9.34143 -6.91423 -16.5662
upperneck 21.6412 -9.11554 12.3904
head 9.72441 -4.39141 6.06579
rclavicle -9.54166e-014 1.82882e-014
rhumerus -19.6701 13.4988 -58.5462
rradius 125.711
rwrist -10.0531
rhand -51.6513 30.2378
rfingers 7.12502
rthumb -24.1732 1.74105
lclavicle -9.54166e-014 1.82882e-014
lhumerus 42.5851 -55.6575 55.7166
lradius 109.903
lwrist 9.78625
lhand -15.2742 77.9863
lfingers 7.12502
lthumb -169.1 -287.683
rfemur -62.5148 -4.74145 39.3216
rtibia 27.1043
rfoot -6.24064 6.22768
rtoes -57.7691
lfemur -61.1299 10.6406 6.72066
ltibia 35.8
lfoot -11.8367 4.15977
ltoes -62.6177
291
root 4.21583 17.7856 -12.975 41.1788 -3.20304 -11.2855
lowerback 43.786 -4.25321 -4.92256
upperback 14.8204 -7.82944 -9.40656
thorax -4.66639 -3.40976 -4.42609
lowerneck -9.60077 -6.84572 -16.4591
upperneck 21.8943 -8.9916 12.2637
head 9.83063 -4.33128 6.02015
rclavicle 4.77083e-014 -3.10104e-014
rhumerus -19.6016 13.7215 -58.9552
rradius 125.664
rwrist -9.98733
rhand -51.799 30.5109
rfingers 7.12502
rthumb -24.3148 2.03306
lclavicle 4.77083e-014 -3.10104e-014
lhumerus 42.0968 -55.7574 55.9926
lradius 109.992
lwrist 9.85434
lhand -15.6112 77.9693
lfingers 7.12502
lthumb -169.425 -287.683
rfemur -62.5293 -4.70013 39.3511
rtibia 27.0968
rfoot -6.28623 6.1812
rtoes -57.7924
lfemur -61.1606 10.746 6.69661
ltibia 35.7704
lfoot -11.821 4.04461
ltoes -62.5524
292
root 4.21158 17.7875 -12.9665 41.1658 -3.1944 -11.3216
lowerback 43.7902 -4.28277 -4.96034
upperback 14.8483 -7.88283 -9.4823
thorax -4.64781 -3.43258 -4.46759
lowerneck -9.80018 -6.84013 -16.4254
upperneck 22.1404 -8.93313 12.0843
head 9.93694 -4.3129 5.95919
rclavicle 3.18055e-014 7.63333e-014
rhumerus -19.6113 13.8147 -59.2116
rradius 125.642
rwrist -9.9563
rhand -51.9266 30.3246
rfingers 7.12502
rthumb -24.4371 1.8632
lclavicle 3.18055e-014 7.63333e-014
lhumerus 41.4101 -55.8207 56.6726
lradius 110.095
lwrist 10.042
lhand -15.4988 77.6522
lfingers 7.12502
lthumb -169.316 -287.361
rfemur -62.4561 -4.69065 39.3962
rtibia 27.0792
rfoot -6.34832 6.18711
rtoes -57.8669
lfemur -61.0804 10.7988 6.70448
ltibia 35.7204
lfoot -11.7972 4.02024
ltoes -62.5432
293
root 4.20966 17.7907 -12.9581 41.1543 -3.22594 -11.2915
lowerback 43.811 -4.27312 -5.03565
upperback 14.8696 -7.90306 -9.52508
thorax -4.6279 -3.44174 -4.46846
lowerneck -9.88232 -6.84958 -16.4894
upperneck 22.2481 -8.90081 11.9769
head 9.9849 -4.31038 5.93611
rclavicle -4.45278e-014 -1.98785e-014
rhumerus -19.6318 13.8065 -59.3497
rradius 125.592
rwrist -9.92668
rhand -51.9452 30.1285
rfingers 7.12502
rthumb -24.455 1.66957
lclavicle -4.45278e-014 -1.98785e-014
lhumerus 41.0719 -55.8959 57.0812
lradius 110.205
lwrist 10.3839
lhand -15.5997 77.3718
lfingers 7.12502
lthumb -169.414 -287.085
rfemur -62.389 -4.60204 39.2382
rtibia 27.0571
rfoot -6.32457 6.04555
rtoes -57.9022
lfemur -60.9923 10.7555 6.69166
ltibia 35.6634
lfoot -11.8415 4.04242
ltoes -62.5582
294
root 4.20937 17.7939 -12.9504 41.1734 -3.23865 -11.2496
lowerback 43.8182 -4.34459 -5.06333
upperback 14.8962 -8.00556 -9.64853
thorax -4.62485 -3.48378 -4.54535
lowerneck -9.92778 -6.80682 -16.4853
upperneck 22.2719 -8.82889 11.9407
head 9.98815 -4.27923 5.93191
rclavicle 2.8625e-014 -4.29375e-014
rhumerus -19.5831 13.8623 -59.617
rradius 125.513
rwrist -9.84795
rhand -51.8995 30.3721
rfingers 7.12502
rthumb -24.4112 1.90723
lclavicle 2.8625e-014 -4.29375e-014
lhumerus 41.0539 -55.9539 56.9511
lradius 110.21
lwrist 10.4619
lhand -16.079 77.2158
lfingers 7.12502
lthumb -169.876 -286.952
rfemur -62.3366 -4.42184 38.971
rtibia 27.0231
rfoot -6.25724 5.7537
rtoes -57.9378
lfemur -60.9526 10.7149 6.67237
ltibia 35.6073
lfoot -11.8774 4.04696
ltoes -62.5331
295
root 4.21119 17.7971 -12.9398 41.1929 -3.18999 -11.2189
lowerback 43.8512 -4.43753 -5.01419
upperback 14.9238 -8.10151 -9.73944
thorax -4.6325 -3.52149 -4.62718
lowerneck -9.92797 -6.80108 -16.5576
upperneck 22.3035 -8.80576 11.9323
head 9.99942 -4.27536 5.94528
rclavicle 3.18055e-014 3.10104e-014
rhumerus -19.5748 13.9091 -59.8272
rradius 125.472
rwrist -9.73476
rhand -51.9183 30.7356
rfingers 7.12502
rthumb -24.4292 2.27311
lclavicle 3.18055e-014 3.10104e-014
lhumerus 41.1866 -56.052 56.7936
lradius 110.191
lwrist 10.2402
lhand -15.9914 77.2741
lfingers 7.12502
lthumb -169.792 -287.006
rfemur -62.3259 -4.5124 39.0022
rtibia 26.9952
rfoot -6.28439 5.80043
rtoes -57.9247
lfemur -60.949 10.6356 6.67474
ltibia 35.568
lfoot -11.8505 4.12732
ltoes -62.5747
296
root 4.21371 17.8008 -12.9263 41.1652 -3.15675 -11.1884
lowerback 43.9405 -4.49841 -4.98252
upperback 14.955 -8.16916 -9.81336
thorax -4.64404 -3.54648 -4.6923
lowerneck -9.92841 -6.83927 -16.61
upperneck 22.3557 -8.82909 11.8509
head 10.0219 -4.29741 5.92192
rclavicle 6.36111e-015 1.19271e-014
rhumerus -19.6269 13.9429 -59.9753
rradius 125.469
rwrist -9.64965
rhand -51.9884 31.1408
rfingers 7.12502
rthumb -24.4964 2.68743
lclavicle 6.36111e-015 1.19271e-014
lhumerus 41.8062 -56.1564 56.3458
lradius 110.321
lwrist 10.4614
lhand -15.817 77.8859
lfingers 7.12502
lthumb -169.623 -287.61
rfemur -62.3056 -4.84321 39.26
rtibia 26.9652
rfoot -6.38268 6.15782
rtoes -57.815
lfemur -60.8903 10.4899 6.69912
ltibia 35.5499
lfoot -11.8643 4.27336
ltoes -62.6544
297
root 4.21116 17.801 -12.9175 41.2402 -3.16257 -11.2112
lowerback 43.9091 -4.50824 -4.96753
upperback 14.9839 -8.17266 -9.84338
thorax -4.61112 -3.54762 -4.73279
lowerneck -10.0177 -6.90252 -16.7463
upperneck 22.4233 -8.86246 11.7895
head 10.0746 -4.32607 5.91743
rclavicle -5.08889e-014 -4.37326e-014
rhumerus -19.6574 13.9492 -60.0324
rradius 125.467
rwrist -9.63015
rhand -52.0043 31.3941
rfingers 7.12502
rthumb -24.5116 2.9428
lclavicle -5.08889e-014 -4.37326e-014
lhumerus 41.7354 -56.2239 56.2504
lradius 110.487
lwrist 11.4018
lhand -15.9918 77.9073
lfingers 7.12502
lthumb -169.792 -287.64
rfemur -62.3554 -4.90875 39.4082
rtibia 26.9534
rfoot -6.45312 6.2714
rtoes -57.8167
lfemur -60.9274 10.5913 6.66732
ltibia 35.5473
lfoot -11.8996 4.19404
ltoes -62.6271
298
root 4.21008 17.8011 -12.9075 41.2867 -3.08574 -11.2409
lowerback 43.9658 -4.51745 -4.84721
upperback 15.0207 -8.13009 -9.78072
thorax -4.58766 -3.52695 -4.74307
lowerneck -10.0357 -7.00111 -17.1181
upperneck 22.4028 -8.94768 11.9137
head 10.1128 -4.38179 6.01364
rclavicle 6.99722e-014 3.97569e-014
rhumerus -19.6985 13.8225 -59.8999
rradius 125.452
rwrist -9.67864
rhand -51.9878 31.4897
rfingers 7.12502
rthumb -24.4958 3.03628
lclavicle 6.99722e-014 3.97569e-014
lhumerus 41.5419 -56.262 56.4488
lradius 110.841
lwrist 13.2988
lhand -16.1007 77.7101
lfingers 7.12502
lthumb -169.897 -287.448
rfemur -62.3548 -4.8502 39.3909
rtibia 26.9612
rfoot -6.47935 6.11885
rtoes -57.8507
lfemur -60.9645 10.6092 6.7125
ltibia 35.5519
lfoot -11.9387 4.10645
ltoes -62.5847
